<?xml version="1.0" encoding="UTF-8" standalone="no"?>
<svg
   xmlns:dc="http://purl.org/dc/elements/1.1/"
   xmlns:cc="http://creativecommons.org/ns#"
   xmlns:rdf="http://www.w3.org/1999/02/22-rdf-syntax-ns#"
   xmlns:svg="http://www.w3.org/2000/svg"
   xmlns="http://www.w3.org/2000/svg"
   xmlns:sodipodi="http://sodipodi.sourceforge.net/DTD/sodipodi-0.dtd"
   xmlns:inkscape="http://www.inkscape.org/namespaces/inkscape"
   version="1.0"
   width="1296.000000pt"
   height="958.000000pt"
   viewBox="0 0 1296.000000 958.000000"
   preserveAspectRatio="xMidYMid meet"
   id="svg2985"
   inkscape:version="0.48.5 r10040"
   sodipodi:docname="map.svg">
  <defs
     id="defs3071" />
  <sodipodi:namedview
     pagecolor="#ffffff"
     bordercolor="#666666"
     borderopacity="1"
     objecttolerance="10"
     gridtolerance="10"
     guidetolerance="10"
     inkscape:pageopacity="0"
     inkscape:pageshadow="2"
     inkscape:window-width="1855"
     inkscape:window-height="1056"
     id="namedview3069"
     showgrid="false"
     inkscape:zoom="0.75908142"
     inkscape:cx="654.54895"
     inkscape:cy="598.75"
     inkscape:window-x="65"
     inkscape:window-y="24"
     inkscape:window-maximized="1"
     inkscape:current-layer="layer3" />
  <metadata
     id="metadata2987">
Created by potrace 1.11, written by Peter Selinger 2001-2013
<rdf:RDF>
  <cc:Work
     rdf:about="">
    <dc:format>image/svg+xml</dc:format>
    <dc:type
       rdf:resource="http://purl.org/dc/dcmitype/StillImage" />
  </cc:Work>
</rdf:RDF>
</metadata>
  <g
     transform="translate(0.000000,958.000000) scale(0.100000,-0.100000)"
     fill="#000000"
     stroke="none"
     id="g2989">
    <path
       d="M20 9375 l0 -185 160 0 160 0 -2 -2102 -3 -2103 -155 -5 -155 -5 0 -185 0 -185 155 -5 155 -5 3 -2098 2 -2097 -160 0 -160 0 0 -190 0 -190 180 0 180 0 0 171 0 171 413 -7 c358 -6 732 -7 1427 -6 96 0 366 0 600 -1 234 0 497 0 585 1 836 5 5063 5 6155 0 145 -1 771 -1 1170 0 96 0 366 0 600 0 234 0 611 2 838 6 l412 7 0 -171 0 -171 180 0 180 0 0 190 0 190 -160 0 -160 0 0 2078 c0 1142 3 2087 6 2100 6 22 9 22 160 22 l154 0 -2 188 -3 187 -151 3 c-147 2 -152 3 -158 25 -3 12 -6 957 -6 2100 l0 2077 160 0 160 0 0 190 0 190 -180 0 -180 0 0 -170 0 -170 -6100 0 -6100 0 0 170 0 170 -180 0 -180 0 0 -185z m238 103 c3 -35 5 -37 40 -40 l37 -3 0 -60 0 -60 -37 -3 c-37 -3 -38 -4 -38 -43 0 -44 -20 -60 -46 -38 -13 10 -17 10 -24 -1 -13 -21 -40 -3 -40 28 0 36 -16 52 -52 52 -28 0 -28 0 -28 65 0 65 0 65 28 65 33 0 52 16 52 45 0 30 5 33 58 31 47 -1 47 -1 50 -38z m12552 2 l0 -40 45 0 45 0 0 -65 0 -65 -33 0 c-42 0 -57 -15 -57 -57 l0 -33 -55 0 -55 0 0 45 0 45 -40 0 -40 0 0 65 0 65 40 0 40 0 0 40 0 40 55 0 55 0 0 -40z m-230 -4690 l0 -4390 -390 0 -390 0 0 30 0 30 363 2 362 3 3 4328 2 4327 -6050 0 -6050 0 0 -4330 0 -4330 370 0 370 0 0 -30 0 -30 -395 0 -395 0 0 4390 0 4390 6100 0 6100 0 0 -4390z m-11078 4143 l3 -148 155 0 155 0 3 148 3 147 444 0 445 0 0 -150 0 -151 153 3 152 3 3 148 3 147 649 0 650 0 2 -1247 3 -1248 2155 0 2155 0 3 1248 2 1247 650 0 650 0 0 -150 0 -151 153 3 152 3 3 148 3 147 444 0 444 0 3 -147 3 -148 155 0 155 0 3 148 3 147 514 0 515 0 0 -845 0 -845 -800 0 -800 0 0 -792 c0 -436 -3 -823 -6 -859 l-7 -66 -156 -6 c-180 -7 -245 -21 -357 -78 -200 -100 -353 -272 -423 -478 -92 -268 -74 -511 56 -764 36 -70 68 -111 149 -197 l104 -108 0 -1213 1 -1214 33 -87 c45 -120 89 -188 174 -274 l73 -74 -798 2 -798 3 -85 41 c-47 23 -108 60 -137 83 -104 84 -183 243 -203 408 -5 43 -14 118 -20 168 -21 168 -86 293 -220 418 -85 81 -186 137 -280 158 -73 16 -2633 25 -2867 10 -216 -14 -273 -34 -417 -150 -88 -71 -142 -144 -194 -263 -38 -87 -41 -102 -51 -239 -13 -169 -40 -279 -92 -364 -66 -110 -175 -198 -307 -250 l-67 -26 -779 3 -779 3 81 87 c82 86 117 145 168 283 18 47 19 113 24 1277 l5 1227 64 55 c85 74 141 150 201 271 70 142 94 247 94 410 -1 106 -6 147 -27 226 -49 187 -117 300 -260 435 -85 82 -174 135 -292 176 -72 25 -102 29 -247 35 l-165 6 -7 66 c-3 36 -6 423 -6 859 l0 792 -800 0 -800 0 0 845 0 845 515 0 514 0 3 -147z m2908 -628 l0 -775 -30 0 -30 0 0 775 0 775 30 0 30 0 0 -775z m2010 750 l0 -25 -990 0 -990 0 0 25 0 25 990 0 990 0 0 -25z m90 -750 l0 -775 -30 0 -30 0 0 775 0 775 30 0 30 0 0 -775z m2010 750 l0 -25 -990 0 -990 0 0 25 0 25 990 0 990 0 0 -25z m90 -750 l0 -775 -30 0 -30 0 0 775 0 775 30 0 30 0 0 -775z m-2190 105 l0 -580 -200 0 -200 0 0 -150 0 -150 -585 0 -584 0 -3 148 -3 147 -202 3 -203 2 0 580 0 580 990 0 990 0 0 -580z m2100 0 l0 -580 -200 0 -200 0 0 -150 0 -150 -590 0 -590 0 0 150 0 150 -200 0 -200 0 0 580 0 580 990 0 990 0 0 -580z m-3710 -750 l0 -130 -185 0 -185 0 0 130 0 130 185 0 185 0 0 -130z m1610 0 l0 -130 -185 0 -185 0 0 130 0 130 185 0 185 0 0 -130z m490 0 l0 -130 -185 0 -185 0 0 130 0 130 185 0 185 0 0 -130z m1610 0 l0 -130 -185 0 -185 0 0 130 0 130 185 0 185 0 0 -130z m-4116 -201 c3 -17 6 -213 6 -435 l0 -404 -30 0 -30 0 0 404 c0 222 3 418 6 435 4 20 12 31 24 31 12 0 20 -11 24 -31z m406 -99 l0 -130 -185 0 -185 0 0 123 c0 68 3 127 7 130 3 4 87 7 185 7 l178 0 0 -130z m1188 124 c21 -6 22 -10 22 -130 l0 -124 -585 0 -585 0 0 130 0 130 563 0 c309 0 572 -3 585 -6z m416 -10 c3 -9 6 -67 6 -130 l0 -114 -185 0 -185 0 0 123 c0 68 3 127 7 130 3 4 84 7 179 7 147 0 173 -2 178 -16z m90 -15 c3 -17 6 -213 6 -435 l0 -404 -30 0 -30 0 0 404 c0 222 3 418 6 435 4 20 12 31 24 31 12 0 20 -11 24 -31z m400 15 c3 -9 6 -67 6 -130 l0 -114 -185 0 -185 0 0 123 c0 68 3 127 7 130 3 4 84 7 179 7 147 0 173 -2 178 -16z m1210 0 c3 -9 6 -67 6 -130 l0 -114 -590 0 -590 0 0 123 c0 68 3 127 7 130 3 4 266 7 584 7 517 0 577 -2 583 -16z m400 0 c3 -9 6 -67 6 -130 l0 -114 -185 0 -185 0 0 123 c0 68 3 127 7 130 3 4 84 7 179 7 147 0 173 -2 178 -16z m90 -15 c3 -17 6 -213 6 -435 l0 -404 -30 0 -30 0 0 404 c0 222 3 418 6 435 4 20 12 31 24 31 12 0 20 -11 24 -31z m-6564 -899 l0 -800 -785 0 -785 0 0 800 0 800 785 0 785 0 0 -800z m10450 0 l0 -800 -785 0 -785 0 0 800 0 800 785 0 785 0 0 -800z m-7680 495 l0 -135 -182 2 -183 3 -3 133 -3 132 186 0 185 0 0 -135z m1208 3 l-3 -133 -582 -3 -583 -2 0 135 0 135 585 0 586 0 -3 -132z m402 2 l0 -130 -185 0 -185 0 0 130 0 130 185 0 185 0 0 -130z m490 0 l0 -130 -185 0 -185 0 0 130 0 130 185 0 185 0 0 -130z m1210 0 l0 -130 -590 0 -590 0 0 130 0 130 590 0 590 0 0 -130z m400 0 l0 -130 -185 0 -185 0 0 130 0 130 185 0 185 0 0 -130z m-3710 -310 l0 -130 -185 0 -185 0 0 130 0 130 185 0 185 0 0 -130z m1210 0 l0 -130 -585 0 -585 0 0 130 0 130 585 0 585 0 0 -130z m400 0 l0 -130 -185 0 -185 0 0 130 0 130 185 0 185 0 0 -130z m490 0 l0 -130 -185 0 -185 0 0 130 0 130 185 0 185 0 0 -130z m1210 0 l0 -130 -590 0 -590 0 0 130 0 130 590 0 590 0 0 -130z m400 0 l0 -130 -185 0 -185 0 0 130 0 130 185 0 185 0 0 -130z m-6480 -1050 l0 -30 -785 0 -785 0 0 30 0 30 785 0 785 0 0 -30z m10450 0 l0 -30 -785 0 -785 0 0 30 0 30 785 0 785 0 0 -30z m-11860 -405 l0 -335 -80 0 -80 0 0 335 0 335 80 0 80 0 0 -335z m90 0 l0 -335 -30 0 -30 0 0 335 0 335 30 0 30 0 0 -335z m1790 300 l85 -30 3 -732 c1 -402 -1 -748 -6 -769 -6 -33 -14 -42 -52 -61 -105 -51 -138 -53 -995 -53 l-795 0 0 840 0 841 838 -3 837 -3 85 -30z m9700 -805 l0 -840 -795 0 c-852 0 -879 1 -996 52 l-46 19 -7 61 c-3 34 -6 379 -6 768 l0 708 65 26 c37 15 89 30 118 35 29 5 415 9 860 10 l807 1 0 -840z m90 505 l0 -335 -30 0 -30 0 0 335 0 335 30 0 30 0 0 -335z m190 0 l0 -335 -80 0 -80 0 0 335 0 335 80 0 80 0 0 -335z m-2160 -1605 c0 -998 5 -1884 10 -1967 8 -146 10 -156 44 -225 80 -166 236 -298 388 -329 107 -22 113 -24 113 -44 0 -28 -51 -33 -327 -34 l-228 -1 0 -295 0 -295 -25 0 -25 0 -2 293 -3 292 -577 3 -578 2 0 -295 0 -295 -25 0 -25 0 0 294 0 295 -22 3 c-17 2 -24 11 -26 30 l-3 27 780 3 c546 2 783 6 791 14 8 8 0 18 -28 36 -126 84 -239 255 -264 400 -10 57 -13 486 -13 1991 0 1679 2 1919 15 1927 9 6 17 5 22 -3 4 -7 8 -829 8 -1827z m-7651 -72 c0 -1041 -4 -1927 -8 -1968 -10 -88 -37 -163 -89 -248 -40 -68 -137 -171 -190 -204 -25 -15 -31 -23 -22 -32 8 -8 232 -12 785 -16 425 -3 777 -8 780 -12 12 -12 -4 -40 -25 -45 -19 -5 -20 -14 -20 -299 l0 -294 -25 0 -25 0 0 295 0 295 -580 0 -580 0 0 -295 0 -295 -25 0 -25 0 0 296 0 296 -347 -4 -348 -4 -85 -33 c-78 -31 -93 -41 -175 -125 -119 -121 -160 -203 -190 -379 -6 -39 -28 -58 -47 -39 -16 16 9 144 44 229 76 186 245 345 410 386 35 9 120 23 191 32 141 17 183 30 274 88 85 53 164 142 213 242 40 81 41 87 50 226 5 80 10 962 10 1972 l0 1827 25 0 25 0 -1 -1892z m235 1642 c97 -165 143 -342 132 -510 -14 -233 -92 -410 -252 -576 l-67 -69 -8 45 c-9 55 -11 1239 -2 1294 l6 40 78 -82 c43 -45 94 -109 113 -142z m7335 -450 c-1 -355 -4 -658 -8 -674 -6 -28 -6 -28 -91 60 -68 71 -96 110 -138 192 -143 278 -127 622 43 887 50 79 176 209 187 193 4 -7 7 -303 7 -658z m-9989 97 c0 -40 15 -57 52 -57 28 0 28 0 28 -65 l0 -65 -40 0 -40 0 0 -40 0 -40 -55 0 c-54 0 -55 1 -55 28 0 36 -16 52 -52 52 -28 0 -28 0 -28 65 0 65 0 65 28 65 37 0 52 17 52 57 l0 33 55 0 55 0 0 -33z m12550 0 c0 -42 15 -57 57 -57 l33 0 0 -65 0 -65 -45 0 -45 0 0 -40 0 -40 -54 0 -55 0 -3 38 c-3 34 -6 37 -38 42 l-35 5 -3 63 -3 62 29 0 c35 0 52 16 52 50 0 36 6 40 62 40 48 0 48 0 48 -33z m-12150 -36 c52 -51 52 -111 0 -162 -41 -42 -101 -41 -141 2 -24 26 -29 40 -29 83 0 74 30 105 103 106 29 0 45 -7 67 -29z m11781 0 c25 -25 29 -37 29 -81 0 -44 -4 -56 -29 -81 -24 -23 -38 -29 -74 -29 -38 0 -49 5 -70 30 -33 38 -40 64 -33 105 10 54 47 85 101 85 38 0 52 -5 76 -29z m-11811 -586 l0 -335 -80 0 -80 0 0 335 0 335 80 0 80 0 0 -335z m90 0 l0 -335 -30 0 -30 0 0 335 0 335 30 0 30 0 0 -335z m11580 0 l0 -335 -30 0 -30 0 0 335 0 335 30 0 30 0 0 -335z m190 0 l0 -335 -80 0 -80 0 0 335 0 335 80 0 80 0 0 -335z m-9890 -1467 l0 -1163 -26 -77 c-49 -149 -162 -280 -297 -344 -62 -29 -94 -37 -203 -49 -144 -17 -214 -35 -289 -72 -109 -55 -187 -126 -266 -238 -46 -66 -91 -190 -110 -304 l-12 -71 -463 0 -464 0 0 845 0 845 800 0 800 0 0 793 c0 435 3 822 6 858 l7 66 136 6 c135 6 239 22 316 51 22 8 46 15 53 15 9 1 12 -238 12 -1161z m7860 1138 c95 -30 205 -46 324 -46 l93 0 6 -82 c4 -46 7 -433 7 -860 l0 -778 800 0 800 0 0 -845 0 -845 -464 0 -463 0 -13 78 c-14 88 -55 225 -73 244 -7 7 -19 26 -27 42 -8 16 -51 67 -94 114 -118 124 -240 181 -431 202 -141 15 -191 28 -267 67 -116 60 -221 183 -269 313 l-24 65 -3 1105 c-3 1031 0 1250 16 1250 4 0 41 -11 82 -24z m-8420 -71 l0 -25 -785 0 -785 0 0 25 0 25 785 0 785 0 0 -25z m10450 0 l0 -25 -785 0 -785 0 0 25 0 25 785 0 785 0 0 -25z m-10440 -865 l0 -800 -790 0 -790 0 0 800 0 800 790 0 790 0 0 -800z m10440 0 l0 -800 -785 0 -785 0 0 800 0 800 785 0 785 0 0 -800z m-6831 -579 c8 -5 11 -16 8 -23 -8 -21 -81 -28 -312 -28 -110 -1 -246 -5 -301 -9 -93 -8 -108 -12 -193 -56 -108 -56 -194 -141 -252 -252 -29 -55 -41 -69 -62 -71 -15 -2 -27 -1 -27 3 0 3 18 42 40 86 48 95 164 223 243 267 73 41 161 71 237 81 88 11 602 13 619 2z m1611 -21 l0 -30 -790 0 -790 0 0 30 0 30 790 0 790 0 0 -30z m725 5 c140 -37 301 -158 376 -286 57 -96 87 -197 100 -342 23 -256 84 -391 233 -515 66 -55 178 -111 241 -120 37 -5 51 -12 53 -26 7 -32 -12 -39 -70 -26 -204 47 -387 215 -459 422 -26 75 -32 112 -58 334 -14 119 -54 213 -126 304 -66 81 -125 127 -220 171 -88 41 -153 48 -492 48 l-273 1 0 25 0 25 318 0 c254 0 330 -3 377 -15z m-145 -75 c141 -9 147 -10 226 -49 132 -66 251 -211 293 -356 6 -22 16 -93 22 -158 10 -121 31 -243 48 -274 5 -10 15 -33 22 -52 19 -51 117 -178 187 -243 90 -83 242 -147 348 -148 24 0 33 -5 38 -22 3 -13 6 -141 6 -285 l0 -263 -465 0 -465 0 0 183 c-1 260 -11 353 -50 433 -39 81 -121 164 -204 204 l-61 30 -1320 -2 -1320 -3 -54 -29 c-72 -37 -148 -115 -199 -203 l-42 -71 0 -271 0 -271 -450 0 -450 0 0 283 0 282 78 17 c245 50 435 241 503 507 11 42 24 132 29 201 6 88 16 146 33 196 44 128 165 260 292 321 69 32 86 36 198 43 183 11 2590 11 2757 0z m-3294 -387 c-3 -10 -10 -82 -16 -161 -11 -141 -39 -282 -61 -308 -6 -8 -22 -14 -34 -14 l-23 0 28 88 c21 65 31 124 39 223 12 155 21 189 51 189 16 0 20 -5 16 -17z m-118 -555 c-13 -22 -52 -71 -88 -108 -105 -109 -242 -186 -342 -192 -40 -3 -43 -1 -43 22 0 22 5 26 49 32 108 15 271 121 354 231 32 42 50 57 68 57 l25 0 -23 -42z m3372 -112 c100 -37 186 -125 232 -236 21 -51 22 -73 26 -307 l4 -253 -186 0 -186 0 -2 213 -3 212 -1215 0 -1215 0 -3 -212 -2 -213 -185 0 -185 0 0 261 0 261 41 79 c43 83 100 143 174 183 30 16 65 22 145 27 58 3 647 5 1310 4 1107 -1 1209 -3 1250 -19z m3280 -181 c133 -45 240 -130 321 -253 64 -97 107 -211 111 -293 3 -58 1 -64 -17 -64 -17 0 -23 12 -37 79 -33 158 -81 246 -190 352 -85 83 -152 120 -252 140 -115 23 -116 23 -116 43 0 10 3 21 8 25 11 12 92 -2 172 -29z m-8490 -335 l0 -280 -546 0 -545 0 6 48 c28 198 146 371 315 461 83 44 118 48 473 50 l297 1 0 -280z m1210 0 l0 -280 -550 0 -550 0 0 280 0 280 550 0 550 0 0 -280z m6440 0 l0 -280 -550 0 -550 0 0 280 0 280 550 0 550 0 0 -280z m862 238 c94 -49 206 -151 253 -232 39 -67 72 -160 80 -229 l7 -57 -546 0 -546 0 0 280 0 280 334 0 334 0 84 -42z m-5442 -323 l0 -195 -190 0 -190 0 0 195 0 195 190 0 190 0 0 -195z m1990 0 l0 -195 -985 0 -985 0 0 195 0 195 985 0 985 0 0 -195z m-6240 -285 l0 -50 -105 0 -105 0 0 50 0 50 105 0 105 0 0 -50z m620 0 l0 -50 -255 0 -255 0 0 50 0 50 255 0 255 0 0 -50z m330 20 l0 -30 -145 0 -145 0 0 30 0 30 145 0 145 0 0 -30z m260 -20 l0 -50 -110 0 -110 0 0 50 0 50 110 0 110 0 0 -50z m620 0 l0 -50 -260 0 -260 0 0 50 0 50 260 0 260 0 0 -50z m330 20 l0 -30 -150 0 -150 0 0 30 0 30 150 0 150 0 0 -30z m255 -20 l0 -45 -107 -3 -108 -3 0 51 0 51 108 -3 107 -3 0 -45z m615 0 l0 -50 -225 0 -225 0 0 50 0 50 225 0 225 0 0 -50z m4020 20 l0 -30 -1990 0 -1990 0 0 30 0 30 1990 0 1990 0 0 -30z m530 -20 l0 -50 -245 0 -245 0 0 50 0 50 245 0 245 0 0 -50z m350 0 l0 -50 -115 0 -115 0 0 50 0 50 115 0 115 0 0 -50z m327 34 c12 -31 -16 -39 -152 -42 l-135 -4 0 31 0 31 140 0 c118 0 142 -2 147 -16z m553 -34 l0 -50 -260 0 -260 0 0 50 0 50 260 0 260 0 0 -50z m320 0 l0 -50 -110 0 -110 0 0 50 0 50 110 0 110 0 0 -50z m330 20 l0 -30 -145 0 -145 0 0 30 0 30 145 0 145 0 0 -30z m868 21 c8 -5 12 -23 10 -47 l-3 -39 -417 -3 -418 -2 0 50 0 50 408 0 c224 0 413 -4 420 -9z m-11488 -124 c0 -40 15 -57 52 -57 28 0 28 -1 28 -60 l0 -60 -40 0 -40 0 0 -46 0 -45 -52 3 c-51 3 -53 4 -56 33 -5 40 -19 55 -53 55 -29 0 -29 1 -29 60 0 59 0 60 28 60 35 0 52 16 52 50 0 36 6 40 62 40 48 0 48 0 48 -33z m12550 0 c0 -42 15 -57 57 -57 l33 0 0 -60 0 -60 -33 0 c-42 0 -57 -15 -57 -57 l0 -33 -55 0 -55 0 0 45 0 45 -40 0 -40 0 0 60 c0 59 0 60 28 60 35 0 52 16 52 50 0 36 6 40 62 40 48 0 48 0 48 -33z"
       id="path2991" />
    <path
       d="M3825 8816 c-55 -25 -88 -70 -93 -129 -8 -94 47 -157 135 -157 59 0 87 16 113 62 33 59 33 138 0 173 -47 51 -109 71 -155 51z"
       id="path2993" />
    <path
       d="M9003 8786 c-33 -30 -37 -39 -41 -93 -8 -107 39 -163 136 -163 66 0 106 32 126 100 31 105 -31 190 -137 190 -40 0 -53 -5 -84 -34z"
       id="path2995" />
    <path
       d="M763 8381 c-44 -20 -78 -63 -88 -112 -9 -40 11 -103 44 -138 26 -28 35 -31 89 -31 69 0 105 22 128 76 54 128 -57 258 -173 205z"
       id="path2997" />
    <path
       d="M3840 8393 c-90 -28 -138 -140 -95 -223 25 -49 61 -70 122 -70 68 0 88 10 114 62 30 59 29 141 -2 174 -38 41 -104 68 -139 57z"
       id="path2999" />
    <path
       d="M12105 8384 c-49 -16 -61 -28 -90 -88 l-26 -53 19 -44 c30 -69 72 -99 139 -99 49 0 59 4 88 33 65 65 65 161 0 223 -39 37 -80 46 -130 28z"
       id="path3001" />
    <path
       d="M9003 8357 c-31 -29 -37 -41 -41 -89 -9 -115 35 -168 139 -168 48 0 59 4 83 29 35 36 58 110 47 149 -22 76 -68 112 -144 112 -40 0 -53 -5 -84 -33z"
       id="path3003" />
    <path
       d="M4047 5740 c-78 -24 -147 -123 -147 -211 0 -167 152 -276 295 -210 56 26 83 59 111 136 24 66 24 68 7 122 -40 126 -154 196 -266 163z"
       id="path3005" />
    <path
       d="M8775 5731 c-51 -23 -97 -75 -120 -135 -52 -136 54 -296 195 -296 159 0 258 173 186 325 -27 59 -46 77 -106 104 -56 25 -103 26 -155 2z"
       id="path3007" />
    <path
       d="M4451 5513 c-16 -85 -50 -156 -104 -211 -49 -51 -99 -79 -182 -102 -58 -16 -60 -18 -67 -56 -11 -62 -9 -1309 2 -1338 8 -22 16 -26 47 -26 50 0 127 -37 185 -89 56 -50 103 -139 122 -231 l13 -65 1909 -3 c1050 -1 1956 1 2013 5 l104 8 21 80 c27 100 61 160 124 217 49 44 130 78 185 78 16 0 30 8 37 19 11 22 15 1263 4 1345 -5 35 -11 46 -24 46 -10 0 -48 9 -84 20 -125 39 -220 157 -248 310 l-12 60 -2016 0 -2017 0 -12 -67z m2971 30 c-518 -2 -1366 -2 -1885 0 -518 1 -94 2 943 2 1037 0 1461 -1 942 -2z m1027 -88 c17 -77 54 -141 118 -207 54 -54 143 -108 206 -123 l27 -7 0 -628 0 -628 -37 -13 c-112 -36 -218 -118 -266 -206 -14 -27 -33 -76 -43 -110 l-17 -63 -1957 0 -1957 0 -17 63 c-43 155 -151 265 -308 316 l-38 13 0 626 0 627 65 24 c144 51 254 173 286 316 l12 55 1957 0 1957 0 12 -55z m-4000 -87 c-7 -13 -32 -49 -56 -80 -37 -48 -58 -65 -127 -98 -45 -22 -92 -40 -104 -40 l-22 0 0 -641 c0 -424 -3 -638 -10 -634 -6 4 -10 230 -10 644 l0 638 38 7 c56 9 173 69 208 107 18 19 43 53 58 77 27 44 45 58 25 20z m4116 -58 c45 -63 125 -116 206 -137 l69 -17 0 -666 0 -665 -67 -22 c-61 -19 -85 -22 -72 -8 3 2 30 11 60 18 l54 14 3 662 2 661 -24 0 c-13 0 -55 16 -94 35 -73 37 -149 109 -185 176 -18 33 -18 33 0 12 10 -12 32 -41 48 -63z m-195 -1880 c-124 -10 -3656 -10 -3780 0 -52 3 798 7 1890 7 1092 0 1942 -4 1890 -7z"
       id="path3009" />
    <path
       d="M4871 5471 c-6 -11 -11 -28 -11 -38 0 -35 -29 -63 -65 -63 -18 0 -46 -5 -62 -11 l-28 -11 53 -47 52 -48 -13 -39 c-38 -107 -29 -117 47 -58 52 39 46 40 119 -18 36 -29 49 -15 36 37 -24 90 -24 89 19 119 73 50 67 76 -18 76 l-59 0 -18 57 c-20 62 -36 75 -52 44z m43 -106 c13 -31 19 -35 50 -35 44 0 45 -9 6 -35 -33 -22 -35 -30 -20 -71 14 -35 9 -38 -28 -17 -30 17 -32 17 -62 -1 -38 -22 -44 -18 -30 18 15 41 13 49 -20 71 -39 26 -38 35 6 35 31 0 37 4 50 35 8 19 19 35 24 35 5 0 16 -16 24 -35z"
       id="path3011" />
    <path
       d="M5500 5430 l-22 -60 -52 0 c-84 0 -89 -12 -29 -68 l52 -49 -15 -48 c-27 -92 -16 -101 59 -43 40 31 41 31 100 -16 49 -39 62 -27 42 40 -8 27 -15 53 -15 58 0 5 21 28 46 52 62 56 56 74 -25 74 l-60 0 -18 57 c-10 31 -23 58 -29 60 -6 2 -21 -23 -34 -57z m71 -86 c6 -8 27 -14 46 -14 l35 0 -31 -29 c-33 -31 -40 -66 -20 -102 10 -20 9 -19 -29 2 l-39 23 -38 -23 c-27 -15 -36 -18 -32 -7 3 8 9 30 12 49 6 29 3 36 -19 51 -34 22 -33 36 3 36 34 0 44 11 61 65 l13 40 14 -39 c7 -21 18 -45 24 -52z"
       id="path3013" />
    <path
       d="M6156 5459 c-8 -19 -18 -47 -21 -62 -7 -25 -11 -27 -64 -27 -87 0 -92 -10 -36 -64 52 -51 50 -42 29 -154 -6 -28 -4 -31 12 -26 11 4 36 20 57 36 40 31 41 31 100 -16 29 -23 40 -27 49 -18 10 10 9 23 -5 61 -9 27 -15 55 -12 63 3 8 26 31 51 52 25 21 43 43 41 49 -2 7 -32 14 -68 17 l-63 5 -19 50 c-25 69 -34 75 -51 34z m97 -129 l39 -5 -32 -24 c-30 -22 -32 -26 -25 -67 6 -45 -3 -56 -25 -29 -16 19 -35 19 -71 -2 -33 -20 -45 -13 -30 15 17 32 13 50 -14 74 -32 28 -32 38 3 38 33 0 56 22 67 65 l7 30 21 -45 c19 -40 27 -46 60 -50z"
       id="path3015" />
    <path
       d="M6804 5476 c-3 -8 -12 -35 -19 -58 -12 -43 -12 -43 -66 -48 -54 -5 -79 -14 -79 -29 0 -4 18 -20 40 -37 50 -36 53 -47 35 -108 -27 -89 -15 -97 58 -40 l46 36 47 -36 c72 -55 90 -46 59 27 -26 62 -21 76 49 135 39 33 28 46 -44 52 l-63 5 -13 46 c-16 54 -40 81 -50 55z m31 -93 c10 -42 24 -53 63 -53 l36 0 -29 -29 c-24 -26 -27 -36 -22 -70 3 -23 3 -41 0 -41 -3 0 -18 8 -34 17 -28 17 -31 17 -61 0 -17 -10 -32 -16 -34 -14 -2 2 1 18 7 36 11 30 9 35 -22 67 l-33 34 36 0 c39 0 52 11 62 53 8 35 22 35 31 0z"
       id="path3017" />
    <path
       d="M7451 5476 c-7 -9 -19 -35 -26 -58 -12 -43 -12 -43 -66 -48 -90 -9 -99 -23 -39 -65 49 -34 57 -62 36 -115 -32 -80 -15 -90 57 -35 25 19 48 35 50 35 3 0 24 -16 47 -35 43 -36 70 -45 70 -22 0 6 -7 34 -15 60 -17 56 -13 67 40 115 20 19 34 39 32 45 -2 7 -31 14 -67 17 l-63 5 -14 50 c-18 61 -26 71 -42 51z m29 -100 c0 -30 17 -44 59 -48 l33 -3 -31 -32 c-27 -29 -29 -35 -19 -63 13 -40 8 -45 -30 -23 -30 17 -33 17 -61 0 -40 -23 -41 -22 -29 19 9 34 7 39 -23 70 l-32 33 39 3 c34 3 41 8 57 41 20 40 37 41 37 3z"
       id="path3019" />
    <path
       d="M8086 5463 c-7 -16 -17 -43 -21 -60 -6 -32 -7 -33 -63 -33 -88 0 -93 -10 -34 -67 l51 -48 -14 -55 c-25 -95 -19 -99 56 -44 l48 35 47 -35 c40 -31 74 -45 74 -32 0 2 -7 23 -15 46 -26 73 -21 95 30 132 62 45 56 62 -24 68 l-64 5 -20 58 c-10 31 -23 57 -28 57 -4 0 -15 -12 -23 -27z m98 -133 l40 -5 -38 -29 c-24 -18 -35 -33 -32 -43 4 -8 9 -27 13 -41 l6 -26 -26 17 c-32 21 -61 22 -77 2 -22 -27 -31 -16 -25 29 6 41 5 45 -27 67 l-33 24 40 5 c35 4 42 10 60 47 l19 43 21 -43 c18 -37 25 -43 59 -47z"
       id="path3021" />
    <path
       d="M4497 5143 c-4 -3 -7 -298 -7 -653 0 -554 2 -649 15 -660 26 -22 49 -8 57 35 9 49 10 1196 2 1248 -6 32 -10 37 -34 37 -15 0 -30 -3 -33 -7z m43 -653 c0 -380 -3 -580 -10 -580 -7 0 -10 200 -10 580 0 380 3 580 10 580 7 0 10 -200 10 -580z"
       id="path3023" />
    <path
       d="M8394 5135 c-4 -8 -2 -304 2 -657 8 -598 10 -642 27 -652 13 -8 20 -8 26 2 4 7 11 88 14 179 9 211 7 1022 -1 1088 -6 45 -10 50 -35 53 -18 2 -29 -2 -33 -13z m46 -645 c0 -380 -3 -580 -10 -580 -7 0 -10 200 -10 580 0 380 3 580 10 580 7 0 10 -200 10 -580z"
       id="path3025" />
    <path
       d="M4774 3838 c4 -13 12 -45 18 -72 13 -53 15 -50 -59 -104 -42 -31 -25 -52 40 -52 61 0 66 -4 91 -73 20 -53 36 -56 49 -11 17 57 32 79 57 82 127 13 130 18 50 76 l-49 35 22 65 c21 65 18 89 -8 71 -8 -6 -32 -23 -54 -38 l-39 -29 -52 36 c-61 42 -75 45 -66 14z m153 -66 c35 21 36 21 29 3 -22 -58 -19 -71 19 -95 41 -25 37 -37 -15 -42 -28 -2 -38 -10 -51 -36 l-17 -33 -21 36 c-18 31 -25 35 -63 35 l-43 1 39 33 c40 34 42 44 19 102 -6 16 -3 16 30 -4 l37 -21 37 21z"
       id="path3027" />
    <path
       d="M5420 3843 c0 -10 7 -43 15 -73 13 -50 13 -55 -2 -64 -9 -5 -33 -24 -52 -42 l-36 -33 28 -10 c16 -6 45 -11 66 -11 36 0 39 -2 56 -47 32 -85 43 -88 65 -18 18 56 27 65 69 65 92 0 104 24 36 72 -25 18 -45 37 -45 42 0 6 7 33 15 60 27 88 17 96 -51 41 -23 -19 -46 -35 -50 -35 -4 0 -21 11 -38 23 -17 13 -41 29 -53 36 -20 10 -23 9 -23 -6z m121 -93 c4 0 11 4 14 10 3 5 15 15 26 21 19 10 20 8 14 -24 -9 -47 0 -72 31 -86 33 -14 22 -31 -20 -31 -39 0 -50 -11 -64 -60 l-9 -35 -13 48 -12 47 -52 0 -51 0 40 34 c39 33 39 33 27 73 -17 55 -17 55 24 28 20 -14 40 -25 45 -25z"
       id="path3029" />
    <path
       d="M6064 3828 c22 -117 23 -107 -30 -154 l-49 -42 28 -11 c16 -6 47 -11 70 -11 42 0 42 0 62 -56 11 -31 25 -56 30 -56 6 0 19 25 30 56 19 55 20 56 60 56 51 0 85 9 85 23 0 6 -21 29 -47 52 l-46 41 16 49 c19 54 22 85 8 85 -5 0 -31 -17 -58 -39 l-49 -38 -48 38 c-59 48 -70 49 -62 7z m142 -57 l37 22 -7 -45 c-7 -43 -5 -47 24 -68 41 -29 38 -40 -10 -40 -38 0 -42 -3 -59 -42 l-18 -43 -12 43 -12 42 -51 0 -52 0 38 35 c40 36 40 39 19 109 -4 16 1 14 31 -9 l35 -27 37 23z"
       id="path3031" />
    <path
       d="M6700 3848 c0 -7 7 -35 15 -62 19 -62 14 -77 -35 -111 -60 -42 -51 -56 39 -65 l54 -5 16 -54 c9 -30 21 -56 28 -58 6 -2 19 18 29 44 21 59 37 73 84 73 20 0 44 6 54 13 16 12 13 16 -28 54 -50 45 -54 63 -31 120 30 72 12 83 -52 28 -23 -19 -46 -35 -52 -35 -6 0 -31 16 -57 35 -48 37 -64 43 -64 23z m90 -80 l30 -22 31 23 c17 13 32 21 35 19 2 -3 0 -19 -6 -36 -8 -29 -5 -37 21 -66 16 -19 29 -36 29 -40 0 -3 -18 -6 -41 -6 -37 0 -41 -3 -56 -37 l-15 -38 -17 35 c-14 30 -22 35 -54 38 -45 4 -46 13 -5 46 29 22 31 27 20 51 -13 27 -16 55 -7 55 3 0 19 -10 35 -22z"
       id="path3033" />
    <path
       d="M7340 3853 c0 -5 7 -30 15 -57 8 -27 15 -55 15 -62 0 -7 -21 -32 -46 -56 -41 -39 -44 -43 -28 -55 10 -7 40 -13 66 -13 30 0 50 -5 52 -12 17 -60 40 -108 50 -105 6 2 18 23 26 48 22 64 27 69 74 69 23 0 51 6 62 14 18 14 18 16 -16 45 -19 17 -38 30 -42 31 -15 1 -17 38 -3 84 27 89 20 94 -53 37 l-49 -39 -34 27 c-51 42 -89 60 -89 44z m157 -83 c28 16 33 17 33 4 0 -8 -5 -24 -10 -34 -9 -16 -4 -27 25 -59 l36 -40 -43 -3 c-38 -3 -45 -7 -59 -38 l-17 -35 -15 38 c-15 35 -18 37 -64 37 l-47 0 37 38 c21 21 36 45 33 53 -2 8 -7 27 -11 42 l-6 28 38 -25 37 -26 33 20z"
       id="path3035" />
    <path
       d="M7994 3828 c22 -111 23 -109 -24 -149 -59 -51 -51 -69 30 -69 33 0 60 -4 60 -10 0 -23 43 -121 50 -113 4 4 17 33 28 63 17 48 23 55 48 58 66 6 94 14 94 26 0 11 -39 47 -83 77 -6 4 -1 32 11 69 31 91 20 100 -49 45 -24 -19 -47 -35 -51 -35 -4 0 -28 16 -54 35 -57 44 -68 44 -60 3z m81 -58 c22 -25 33 -25 65 0 37 29 42 25 24 -17 l-15 -38 35 -31 c20 -17 36 -34 36 -38 0 -3 -17 -6 -38 -6 -43 0 -62 -14 -62 -46 0 -39 -16 -35 -33 6 -15 38 -18 40 -58 40 l-43 0 33 34 c30 31 32 38 26 75 -7 45 2 52 30 21z"
       id="path3037" />
    <path
       d="M8958 3393 c-57 -32 -78 -71 -78 -148 0 -51 3 -60 33 -90 18 -18 51 -39 74 -45 37 -11 45 -10 84 11 103 58 107 206 8 266 -55 34 -71 34 -121 6z"
       id="path3039" />
    <path
       d="M3887 3392 c-78 -52 -99 -138 -52 -217 33 -58 83 -82 137 -66 21 7 53 25 71 40 28 26 32 35 35 99 5 83 -9 111 -72 142 -52 25 -83 25 -119 2z"
       id="path3041" />
    <path
       d="M5640 3210 c-20 -5 -48 -23 -67 -44 -30 -33 -33 -41 -33 -100 0 -54 4 -69 25 -94 75 -89 220 -58 243 52 24 121 -57 211 -168 186z"
       id="path3043" />
    <path
       d="M7244 3208 c-18 -4 -46 -24 -64 -45 -31 -34 -32 -39 -28 -105 3 -61 7 -72 35 -100 27 -27 41 -32 91 -36 55 -4 61 -2 95 27 63 56 68 165 10 222 -33 33 -95 49 -139 37z"
       id="path3045" />
    <path
       d="M1355 1751 c-27 -16 -61 -46 -75 -67 -22 -33 -25 -48 -25 -129 0 -83 3 -96 25 -128 14 -20 38 -45 53 -57 33 -26 128 -52 142 -39 5 5 20 9 35 9 47 0 106 53 135 124 21 51 19 149 -4 194 -58 113 -182 153 -286 93z"
       id="path3047" />
    <path
       d="M739 1685 c-25 -13 -44 -43 -68 -108 -9 -23 -7 -36 14 -76 35 -69 66 -91 131 -91 69 0 107 30 130 103 16 51 16 54 -6 100 -31 66 -61 87 -124 87 -28 -1 -63 -7 -77 -15z"
       id="path3049" />
    <path
       d="M755 1260 c-30 -12 -60 -50 -79 -99 -17 -43 -17 -45 8 -95 31 -63 67 -86 134 -86 58 0 97 25 118 76 16 38 18 96 5 122 -5 9 -12 25 -15 34 -13 44 -114 72 -171 48z"
       id="path3051" />
    <path
       d="M11411 1754 c-77 -39 -105 -86 -110 -185 -4 -96 19 -153 82 -199 37 -27 48 -30 115 -30 40 0 83 5 95 11 49 25 87 73 108 136 l21 63 -21 69 c-42 139 -166 197 -290 135z"
       id="path3053" />
    <path
       d="M12068 1685 c-29 -16 -68 -88 -68 -126 1 -37 34 -103 65 -127 21 -17 41 -22 82 -22 49 0 59 4 88 33 47 47 62 107 40 163 -25 65 -65 94 -128 94 -29 -1 -64 -7 -79 -15z"
       id="path3055" />
    <path
       d="M12050 1232 c-48 -48 -59 -95 -35 -157 25 -66 64 -95 129 -95 79 0 124 43 141 132 5 26 1 46 -15 77 -27 54 -71 81 -134 81 -43 0 -53 -4 -86 -38z"
       id="path3057" />
    <path
       d="M6407 2196 c-85 -32 -131 -106 -131 -211 0 -100 44 -176 117 -204 43 -17 144 -13 184 6 72 34 122 145 109 238 -9 58 -61 134 -110 158 -49 26 -121 31 -169 13z"
       id="path3059" />
    <path
       d="M4814 1606 c-90 -39 -111 -166 -41 -242 43 -47 97 -55 160 -25 49 24 63 47 72 118 14 112 -89 193 -191 149z"
       id="path3061" />
    <path
       d="M8010 1594 c-42 -36 -60 -74 -60 -130 0 -60 28 -106 79 -129 76 -34 145 -6 186 76 23 44 25 55 15 85 -36 107 -149 157 -220 98z"
       id="path3063" />
    <path
       d="M5411 832 c-47 -23 -72 -61 -78 -115 -7 -60 11 -110 53 -147 28 -24 44 -30 80 -30 98 0 144 44 151 144 4 52 2 66 -19 96 -27 40 -79 70 -123 70 -16 0 -45 -8 -64 -18z"
       id="path3065" />
    <path
       d="M7425 836 c-16 -7 -41 -26 -55 -41 -22 -23 -25 -36 -25 -99 0 -84 18 -120 70 -142 121 -50 226 31 212 163 -11 104 -108 161 -202 119z"
       id="path3067" />
  </g>
  <g
     inkscape:groupmode="layer"
     id="layer3"
     inkscape:label="Слой" />
</svg>
